<svg width="27" height="24" viewBox="0 0 27 24" fill="none" xmlns="http://www.w3.org/2000/svg">
<mask id="path-1-inside-1_4001_2355" fill="white">
<path fill-rule="evenodd" clip-rule="evenodd" d="M13.3407 23.9999C13.3407 23.9999 13.3408 24 13.3408 24V23.9998C16.7884 20.5522 17.8822 19.4584 18.6521 18.6885C19.6677 17.673 20.1199 17.2208 24.6674 12.6732C30.792 6.54832 21.336 -5.31629 13.3407 2.67882C5.34536 -5.31629 -4.11067 6.54832 2.01397 12.6732C6.56491 17.2243 7.01431 17.6737 8.03156 18.6909C8.8014 19.4607 9.89645 20.5557 13.3406 23.9998V24C13.3406 24 13.3406 23.9999 13.3407 23.9999Z"/>
</mask>
<path d="M13.3407 23.9999L14.0562 23.3013L13.3407 22.5683L12.6251 23.3013L13.3407 23.9999ZM13.3408 24L12.6252 24.6985L14.3408 26.456V24H13.3408ZM13.3408 23.9998L12.6337 23.2927L12.3408 23.5856V23.9998H13.3408ZM18.6521 18.6885L19.3592 19.3956L18.6521 18.6885ZM24.6674 12.6732L23.9603 11.9661L24.6674 12.6732ZM13.3407 2.67882L12.6336 3.38594L13.3407 4.09302L14.0478 3.38594L13.3407 2.67882ZM2.01397 12.6732L2.72109 11.9661H2.72109L2.01397 12.6732ZM8.03156 18.6909L8.73865 17.9837L8.03156 18.6909ZM13.3406 23.9998H14.3406V23.5856L14.0477 23.2927L13.3406 23.9998ZM13.3406 24H12.3406V26.456L14.0561 24.6985L13.3406 24ZM12.6251 24.6984C12.6292 24.7026 12.6326 24.706 12.6347 24.7081C12.6357 24.7091 12.6366 24.71 12.6371 24.7105C12.6374 24.7108 12.6376 24.711 12.6377 24.7111C12.6378 24.7112 12.6378 24.7112 12.6379 24.7113C12.6379 24.7113 12.6379 24.7113 12.6379 24.7113C12.6379 24.7113 12.6379 24.7113 12.6379 24.7113C12.6379 24.7113 12.6379 24.7113 12.6379 24.7113C12.6382 24.7116 12.6366 24.71 12.6347 24.7081C12.6327 24.7061 12.6293 24.7027 12.6252 24.6985L14.0564 23.3015C14.0522 23.2972 14.0489 23.2939 14.0468 23.2918C14.0457 23.2907 14.0449 23.2899 14.0444 23.2894C14.0441 23.2891 14.0439 23.2889 14.0437 23.2888C14.0437 23.2887 14.0436 23.2886 14.0436 23.2886C14.0436 23.2886 14.0436 23.2886 14.0436 23.2886C14.0436 23.2886 14.0435 23.2886 14.0435 23.2886C14.0435 23.2886 14.0435 23.2886 14.0435 23.2886C14.0433 23.2883 14.0449 23.2899 14.0467 23.2917C14.0488 23.2938 14.0521 23.2971 14.0562 23.3013L12.6251 24.6984ZM14.3408 24V23.9998H12.3408V24H14.3408ZM17.945 17.9814C17.1751 18.7513 16.0813 19.8451 12.6337 23.2927L14.0479 24.7069C17.4955 21.2593 18.5893 20.1656 19.3592 19.3956L17.945 17.9814ZM23.9603 11.9661C19.4128 16.5137 18.9606 16.9659 17.945 17.9814L19.3592 19.3956C20.3748 18.3801 20.827 17.9279 25.3745 13.3803L23.9603 11.9661ZM14.0478 3.38594C15.8803 1.55349 17.7082 0.935631 19.3011 1.00524C20.9151 1.07578 22.422 1.85813 23.5743 3.07006C25.9241 5.54157 26.5218 9.40446 23.9603 11.9661L25.3745 13.3803C28.9376 9.81704 27.8696 4.6852 25.0237 1.69197C23.5781 0.171529 21.6047 -0.895993 19.3884 -0.992849C17.151 -1.09063 14.7987 -0.193397 12.6336 1.97171L14.0478 3.38594ZM14.0478 1.97171C11.8826 -0.193397 9.53031 -1.09063 7.29292 -0.992849C5.07663 -0.895993 3.1032 0.171529 1.65762 1.69197C-1.18823 4.6852 -2.25626 9.81704 1.30685 13.3803L2.72109 11.9661C0.159551 9.40446 0.757227 5.54157 3.10706 3.07006C4.25932 1.85813 5.76623 1.07578 7.38024 1.00524C8.97313 0.935631 10.8011 1.55349 12.6336 3.38594L14.0478 1.97171ZM1.30685 13.3803C5.85779 17.9314 6.30721 18.3808 7.32447 19.398L8.73865 17.9837C7.72142 16.9665 7.27203 16.5172 2.72109 11.9661L1.30685 13.3803ZM7.32447 19.398C8.0943 20.1678 9.18935 21.2628 12.6334 24.7069L14.0477 23.2927C10.6036 19.8486 9.5085 18.7535 8.73865 17.9837L7.32447 19.398ZM14.3406 24V23.9998H12.3406V24H14.3406ZM12.6251 23.3013C12.6292 23.2971 12.6326 23.2938 12.6346 23.2917C12.6365 23.2899 12.6381 23.2883 12.6378 23.2886C12.6378 23.2886 12.6378 23.2886 12.6378 23.2886C12.6378 23.2886 12.6378 23.2886 12.6378 23.2886C12.6378 23.2886 12.6378 23.2886 12.6378 23.2886C12.6377 23.2886 12.6377 23.2887 12.6376 23.2888C12.6375 23.2889 12.6372 23.2891 12.637 23.2894C12.6365 23.2899 12.6356 23.2907 12.6345 23.2918C12.6325 23.2939 12.6291 23.2972 12.625 23.3015L14.0561 24.6985C14.052 24.7027 14.0487 24.7061 14.0466 24.7081C14.0448 24.71 14.0431 24.7116 14.0434 24.7113C14.0434 24.7113 14.0434 24.7113 14.0434 24.7113C14.0434 24.7113 14.0434 24.7113 14.0434 24.7113C14.0434 24.7113 14.0435 24.7113 14.0435 24.7113C14.0435 24.7112 14.0436 24.7112 14.0436 24.7111C14.0438 24.711 14.044 24.7108 14.0442 24.7105C14.0448 24.71 14.0456 24.7091 14.0467 24.7081C14.0488 24.706 14.0521 24.7026 14.0562 24.6984L12.6251 23.3013Z" fill="white" mask="url(#path-1-inside-1_4001_2355)"/>
</svg>
