<svg width="24" height="24" viewBox="0 0 24 24" fill="none" xmlns="http://www.w3.org/2000/svg">
<path d="M12 8.16C14.1257 8.16 15.84 9.87429 15.84 12C15.84 14.1257 14.1257 15.84 12 15.84C9.87429 15.84 8.16 14.1257 8.16 12C8.16 9.87429 9.87429 8.16 12 8.16ZM12 5.76C8.55429 5.76 5.76 8.55429 5.76 12C5.76 15.4457 8.55429 18.24 12 18.24C15.4457 18.24 18.24 15.4457 18.24 12C18.24 8.55429 15.4457 5.76 12 5.76Z" fill="white"/>
<path d="M18.4114 7.02857C19.2067 7.02857 19.8514 6.38386 19.8514 5.58857C19.8514 4.79328 19.2067 4.14857 18.4114 4.14857C17.6161 4.14857 16.9714 4.79328 16.9714 5.58857C16.9714 6.38386 17.6161 7.02857 18.4114 7.02857Z" fill="white"/>
<path d="M17.76 2.4C19.8857 2.4 21.6 4.11429 21.6 6.24V17.76C21.6 19.8857 19.8857 21.6 17.76 21.6H6.24C4.11429 21.6 2.4 19.8857 2.4 17.76V6.24C2.4 4.11429 4.11429 2.4 6.24 2.4H17.76ZM17.76 0H6.24C2.79429 0 0 2.79429 0 6.24V17.76C0 21.2057 2.79429 24 6.24 24H17.76C21.2057 24 24 21.2057 24 17.76V6.24C24 2.79429 21.2057 0 17.76 0Z" fill="white"/>
</svg>
