<svg width="112" height="96" viewBox="0 0 112 96" fill="none" xmlns="http://www.w3.org/2000/svg">
<path d="M26.9739 1.20256L10.3865 18.0467L11.4761 19.1197L28.0635 2.27553L26.9739 1.20256Z" fill="white"/>
<path d="M29.784 5.14268L13.1966 21.9869L14.2862 23.0598L30.8736 6.21565L29.784 5.14268Z" fill="white"/>
<path d="M95.7909 67.8457L79.2035 84.6899L80.2931 85.7629L96.8805 68.9187L95.7909 67.8457Z" fill="white"/>
<path d="M97.1067 35.257L80.5193 52.1012L81.6089 53.1742L98.1963 36.33L97.1067 35.257Z" fill="white"/>
<path d="M29.029 12.7186L2.37652 39.7835L3.4661 40.8565L30.1185 13.7916L29.029 12.7186Z" fill="white"/>
<path d="M94.3644 8.56858L77.777 25.4128L78.8665 26.4857L95.454 9.64155L94.3644 8.56858Z" fill="white"/>
<path d="M31.3352 71.8925L14.7478 88.7367L15.8373 89.8097L32.4248 72.9655L31.3352 71.8925Z" fill="white"/>
<path d="M51.5219 35.8814L38.3376 49.2698L39.5788 50.4921L52.7632 37.1037L51.5219 35.8814Z" fill="white"/>
<path d="M54.6918 40.6963L40.3598 55.2501L41.6011 56.4725L55.9331 41.9186L54.6918 40.6963Z" fill="white"/>
<path d="M25.7839 84.9132L15.9006 94.9494L16.9674 96L26.8507 85.9638L25.7839 84.9132Z" fill="white"/>
<path d="M62.6685 47.3309L52.7852 57.3671L54.0265 58.5894L63.9098 48.5532L62.6685 47.3309Z" fill="white"/>
<path d="M76.1743 56.3626L66.291 66.3988L67.5323 67.6212L77.4155 57.585L76.1743 56.3626Z" fill="white"/>
<path d="M81.8 58.4532L67.0572 73.4242L68.2985 74.6465L83.0412 59.6756L81.8 58.4532Z" fill="white"/>
<path d="M93.1304 2.71626L79.6573 16.3979L80.8986 17.6202L94.3717 3.93859L93.1304 2.71626Z" fill="white"/>
<path d="M99.2443 80.252L89.3611 90.2882L90.6023 91.5106L100.486 81.4743L99.2443 80.252Z" fill="white"/>
<path d="M103.288 84.2354L93.4045 94.2716L94.6458 95.4939L104.529 85.4577L103.288 84.2354Z" fill="white"/>
<path d="M64.8406 52.6313L54.9574 62.6676L56.1986 63.8899L66.0819 53.8537L64.8406 52.6313Z" fill="white"/>
<path d="M59.339 43.9855L37.215 66.452L38.4562 67.6743L60.5803 45.2078L59.339 43.9855Z" fill="white"/>
<path d="M76.9277 48.1267L54.8036 70.5932L56.0449 71.8155L78.1689 49.349L76.9277 48.1267Z" fill="white"/>
<path d="M38.0212 10.1424L11.9712 36.5956L13.1518 37.7582L39.2018 11.305L38.0212 10.1424Z" fill="white"/>
<path d="M37.0455 18.2394L10.9955 44.6926L12.1761 45.8552L38.2261 19.402L37.0455 18.2394Z" fill="white"/>
<path d="M109.706 0L74.8107 35.4352L76.2921 36.8941L111.187 1.45884L109.706 0Z" fill="white"/>
<path d="M38.1325 24.8965L12.0826 51.3496L13.2632 52.5122L39.3131 26.059L38.1325 24.8965Z" fill="white"/>
<path d="M109.664 29.9077L83.6136 56.3609L84.7942 57.5235L110.844 31.0703L109.664 29.9077Z" fill="white"/>
<path d="M44.868 25.9032L0 71.4657L1.18058 72.6283L46.0486 27.0658L44.868 25.9032Z" fill="white"/>
<path d="M98.9659 48.07L72.916 74.5232L74.0965 75.6858L100.147 49.2326L98.9659 48.07Z" fill="white"/>
<path d="M104.528 20.1597L78.4776 46.6129L79.6582 47.7755L105.708 21.3223L104.528 20.1597Z" fill="white"/>
<path d="M102.574 14.3686L76.5236 40.8218L77.7042 41.9844L103.754 15.5312L102.574 14.3686Z" fill="white"/>
<path d="M108.425 46.5324L82.3753 72.9855L83.5559 74.1481L109.606 47.695L108.425 46.5324Z" fill="white"/>
<path d="M34.1281 61.6414L8.07814 88.0946L9.25873 89.2572L35.3087 62.804L34.1281 61.6414Z" fill="white"/>
<path d="M109.91 61.981L83.8605 88.4342L85.041 89.5968L111.091 63.1436L109.91 61.981Z" fill="white"/>
<path d="M37.2904 50.504L11.2405 76.9571L12.421 78.1197L38.471 51.6666L37.2904 50.504Z" fill="white"/>
<path d="M48.7113 30.31L9.18826 70.4448L10.3688 71.6074L49.8919 31.4726L48.7113 30.31Z" fill="white"/>
</svg>
