<svg width="24" height="24" viewBox="0 0 24 24" fill="none" xmlns="http://www.w3.org/2000/svg">
<path d="M0.647507 18.3015C0.647507 18.3015 2.08127 17.097 2.78122 16.5887C3.43601 16.1024 4.49723 15.4505 5.08428 15.1189C6.13421 14.5332 7.218 14.8979 7.65829 15.4836L8.58403 16.6439C9.05819 17.2296 9.792 17.1302 9.98393 17.097C11.35 16.7655 12.8063 15.9256 14.2852 14.5222C15.7867 13.0966 16.7012 11.6158 17.0173 10.0687L17.0399 9.96928C17.1302 9.33939 17.0173 9.04101 16.7576 8.61003L16.7125 8.56583C16.0915 8.00224 14.9287 7.30604 14.7707 6.643C14.3191 5.49372 16.2948 3.11781 16.577 2.69788C16.577 2.69788 18.0108 0.84135 18.5188 0.476675C19.072 0.0235937 19.9187 -0.230574 20.788 0.288812L20.8331 0.321964C23.3055 1.95748 24.2087 2.90784 23.9603 4.31129L23.8249 4.87488C22.5717 8.74264 20.1445 12.8756 16.5318 16.5555C12.9531 20.1912 9.09206 22.3572 5.2762 23.8711C4.28273 24.1916 3.25538 23.9153 2.20546 23.0313L2.18288 23.0202C1.37004 22.2798 0.737823 21.4952 0.263664 20.6443V20.6222C-0.199206 19.7271 -0.0411526 18.8762 0.647507 18.3015Z" fill="white"/>
</svg>
