<svg width="24" height="22" viewBox="0 0 24 22" fill="none" xmlns="http://www.w3.org/2000/svg">
<path d="M24 1.3623L20.1991 20.5067C20.1991 20.5067 19.669 21.837 18.2087 21.1968L12.8059 17.0563L9.34513 20.217C9.34513 20.217 9.07507 20.4271 8.775 20.2971L8.77829 20.2678L9.47499 14.316C9.47499 14.316 19.1872 5.58397 19.5873 5.21389C19.9874 4.8438 19.8574 4.76378 19.8574 4.76378C19.8774 4.31368 19.1372 4.76378 19.1372 4.76378L6.27025 12.9418L6.25594 12.9349L0.90472 11.1345C0.90472 11.1345 0.0845327 10.8445 0.00451441 10.2043C-0.0755039 9.56417 0.934727 9.2241 0.934727 9.2241L22.2496 0.862182C22.2496 0.862182 24 0.0920063 24 1.3623Z" fill="white"/>
</svg>
